<svg width="16" height="16" viewBox="0 0 16 16" fill="none" xmlns="http://www.w3.org/2000/svg">
<path d="M13.4959 5.28772H8.49991V3.84247C8.69055 3.7324 8.83954 3.5625 8.92379 3.35912C9.00803 3.15575 9.02281 2.93025 8.96583 2.71762C8.90886 2.50499 8.78331 2.3171 8.60867 2.18309C8.43402 2.04908 8.22004 1.97644 7.99991 1.97644C7.77977 1.97644 7.56579 2.04908 7.39114 2.18309C7.2165 2.3171 7.09096 2.50499 7.03398 2.71762C6.97701 2.93025 6.99179 3.15575 7.07603 3.35912C7.16027 3.5625 7.30926 3.7324 7.49991 3.84247V5.28772H2.50391L2.00391 5.78772V13.4815L2.50391 13.9815H13.4959L13.9959 13.4815V5.78772L13.4959 5.28772ZM12.9959 12.9815H3.00391V6.28772H12.9959V12.9815Z" fill="#0A0A0A"/>
<path d="M5.66916 9.51447C6.12769 9.51447 6.49941 9.14197 6.49941 8.68247C6.49941 8.22296 6.12769 7.85047 5.66916 7.85047C5.21062 7.85047 4.83891 8.22296 4.83891 8.68247C4.83891 9.14197 5.21062 9.51447 5.66916 9.51447Z" fill="#0A0A0A"/>
<path d="M10.3307 9.51447C10.7892 9.51447 11.1609 9.14197 11.1609 8.68247C11.1609 8.22296 10.7892 7.85047 10.3307 7.85047C9.87212 7.85047 9.50041 8.22296 9.50041 8.68247C9.50041 9.14197 9.87212 9.51447 10.3307 9.51447Z" fill="#0A0A0A"/>
<path d="M9.58066 10.583H6.41941V11.583H9.58066V10.583Z" fill="#0A0A0A"/>
</svg>
